<svg xmlns="http://www.w3.org/2000/svg" viewBox="0 0 460 300" style="width: 100%; border-radius: 10px; background: rgb(10, 22, 40); display: block;"><defs><marker id="arr-E53935" markerWidth="8" markerHeight="8" refX="6" refY="3" orient="auto"><path d="M0,0 L0,6 L8,3 z" fill="#E53935"/></marker><marker id="arr-fff" markerWidth="8" markerHeight="8" refX="6" refY="3" orient="auto"><path d="M0,0 L0,6 L8,3 z" fill="#fff"/></marker></defs><rect width="460" height="300" fill="#0a1628" rx="10"/><line x1="0" y1="0" x2="460" y2="0" stroke="#1a3a5a" stroke-width="0.5"/><line x1="0" y1="33" x2="460" y2="33" stroke="#1a3a5a" stroke-width="0.5"/><line x1="0" y1="66" x2="460" y2="66" stroke="#1a3a5a" stroke-width="0.5"/><line x1="0" y1="99" x2="460" y2="99" stroke="#1a3a5a" stroke-width="0.5"/><line x1="0" y1="132" x2="460" y2="132" stroke="#1a3a5a" stroke-width="0.5"/><line x1="0" y1="165" x2="460" y2="165" stroke="#1a3a5a" stroke-width="0.5"/><line x1="0" y1="198" x2="460" y2="198" stroke="#1a3a5a" stroke-width="0.5"/><line x1="0" y1="231" x2="460" y2="231" stroke="#1a3a5a" stroke-width="0.5"/><line x1="0" y1="264" x2="460" y2="264" stroke="#1a3a5a" stroke-width="0.5"/><line x1="0" y1="297" x2="460" y2="297" stroke="#1a3a5a" stroke-width="0.5"/><line x1="46" y1="0" x2="46" y2="300" stroke="#1a3a5a" stroke-width="0.5"/><line x1="92" y1="0" x2="92" y2="300" stroke="#1a3a5a" stroke-width="0.5"/><line x1="138" y1="0" x2="138" y2="300" stroke="#1a3a5a" stroke-width="0.5"/><line x1="184" y1="0" x2="184" y2="300" stroke="#1a3a5a" stroke-width="0.5"/><line x1="230" y1="0" x2="230" y2="300" stroke="#1a3a5a" stroke-width="0.5"/><line x1="276" y1="0" x2="276" y2="300" stroke="#1a3a5a" stroke-width="0.5"/><line x1="322" y1="0" x2="322" y2="300" stroke="#1a3a5a" stroke-width="0.5"/><line x1="368" y1="0" x2="368" y2="300" stroke="#1a3a5a" stroke-width="0.5"/><line x1="414" y1="0" x2="414" y2="300" stroke="#1a3a5a" stroke-width="0.5"/><line x1="110" y1="220" x2="144" y2="249" stroke="#ffffff" stroke-width="2" stroke-dasharray="5,3" marker-end="url(#arr-fff)" opacity="0.7"/><line x1="350" y1="180" x2="316" y2="151" stroke="#E53935" stroke-width="2" stroke-dasharray="5,3" marker-end="url(#arr-E53935)" opacity="0.7"/><g><polygon points="125.3,232.9 116.6,232.0 107.9,225.7 98.2,216.7 93.1,209.0 96.2,205.3 104.7,208.9 115.2,216.9 123.0,224.4" fill="#90caf9" stroke="#fff" stroke-width="1" opacity="0.95"/><polygon points="103.0,218.4 96.4,212.6 100.3,207.9 107.2,213.4" fill="rgba(255,255,255,0.22)" stroke="#fff" stroke-width="0.8" opacity="0.9"/><circle cx="115.5" cy="224.6" r="2" fill="#fff" opacity="0.8"/><text x="96.2" y="196.4" text-anchor="middle" font-size="11" font-weight="800" fill="#90caf9" stroke="#0d1b2a" stroke-width="3" paint-order="stroke">A</text></g><g><polygon points="334.7,167.1 343.4,168.0 352.1,174.3 361.8,183.3 366.9,191.0 363.8,194.7 355.3,191.1 344.8,183.1 337.0,175.6" fill="#E53935" stroke="#fff" stroke-width="1" opacity="0.95"/><polygon points="357.0,181.6 363.6,187.4 359.7,192.1 352.8,186.6" fill="rgba(255,255,255,0.22)" stroke="#fff" stroke-width="0.8" opacity="0.9"/><circle cx="344.5" cy="175.4" r="2" fill="#fff" opacity="0.8"/><text x="363.8" y="179.6" text-anchor="middle" font-size="11" font-weight="800" fill="#E53935" stroke="#0d1b2a" stroke-width="3" paint-order="stroke">B</text></g><text x="230" y="22" text-anchor="middle" font-size="13" font-weight="700" fill="#E53935">Both vessels alter to STARBOARD</text><text x="230" y="286" text-anchor="middle" font-size="10" fill="#90caf9">Both vessels alter to STARBOARD</text></svg>
