<svg xmlns="http://www.w3.org/2000/svg" viewBox="0 0 460 285" style="width: 100%; border: 1px solid rgb(221, 217, 206); border-radius: 6px; background: rgb(240, 248, 255);"><rect width="460" height="285" fill="#f0f8ff" rx="6"/><line x1="0" y1="0" x2="460" y2="0" stroke="#cce" stroke-width="0.5"/><line x1="0" y1="50" x2="460" y2="50" stroke="#cce" stroke-width="0.5"/><line x1="0" y1="100" x2="460" y2="100" stroke="#cce" stroke-width="0.5"/><line x1="0" y1="150" x2="460" y2="150" stroke="#cce" stroke-width="0.5"/><line x1="0" y1="200" x2="460" y2="200" stroke="#cce" stroke-width="0.5"/><line x1="0" y1="250" x2="460" y2="250" stroke="#cce" stroke-width="0.5"/><line x1="0" y1="0" x2="0" y2="285" stroke="#cce" stroke-width="0.5"/><line x1="50" y1="0" x2="50" y2="285" stroke="#cce" stroke-width="0.5"/><line x1="100" y1="0" x2="100" y2="285" stroke="#cce" stroke-width="0.5"/><line x1="150" y1="0" x2="150" y2="285" stroke="#cce" stroke-width="0.5"/><line x1="200" y1="0" x2="200" y2="285" stroke="#cce" stroke-width="0.5"/><line x1="250" y1="0" x2="250" y2="285" stroke="#cce" stroke-width="0.5"/><line x1="300" y1="0" x2="300" y2="285" stroke="#cce" stroke-width="0.5"/><line x1="350" y1="0" x2="350" y2="285" stroke="#cce" stroke-width="0.5"/><line x1="400" y1="0" x2="400" y2="285" stroke="#cce" stroke-width="0.5"/><line x1="450" y1="0" x2="450" y2="285" stroke="#cce" stroke-width="0.5"/><line x1="430" y1="38" x2="430" y2="15" stroke="#333" stroke-width="1.5"/><text x="430" y="12" text-anchor="middle" font-size="11" fill="#333" font-weight="bold">N</text><polygon points="430,15 427,24 430,21 433,24" fill="#333"/><line x1="37.5" y1="5.1" x2="275" y2="257.8" stroke="#e44" stroke-width="2"/><text x="255" y="270.8" font-size="10" fill="#e44">LOP1 (317°)</text><line x1="395" y1="-4" x2="110" y2="262" stroke="#0a0" stroke-width="2"/><text x="100" y="275" font-size="10" fill="#0a0">LOP2 (47°)</text><line x1="421" y1="258.6" x2="98" y2="140.8" stroke="#06c" stroke-width="2"/><text x="58" y="154.8" font-size="10" fill="#06c">LOP3 (110°)</text><polygon points="193,173 208,171 203,187" fill="rgba(255,200,0,0.4)" stroke="#cc8800" stroke-width="2"/><text x="214" y="162" font-size="10" fill="#cc8800" font-weight="bold">Cocked hat</text><line x1="192" y1="177" x2="210" y2="177" stroke="#000" stroke-width="2.5"/><line x1="201" y1="168" x2="201" y2="186" stroke="#000" stroke-width="2.5"/><circle cx="201" cy="177" r="6" fill="none" stroke="#000" stroke-width="2"/><text x="213" y="169" font-size="11" fill="#333" font-weight="bold">Fix 1024</text><g><polygon points="75,31 68,45 82,45" fill="#8B4513" stroke="#333" stroke-width="1"/><rect x="73" y="45" width="4" height="8" fill="#888"/><text x="75" y="28" font-size="9" text-anchor="middle" fill="#333" font-weight="bold">Lt. Ho. A</text></g><g><polygon points="350,24 343,38 357,38" fill="#8B4513" stroke="#333" stroke-width="1"/><rect x="348" y="38" width="4" height="8" fill="#888"/><text x="350" y="21" font-size="9" text-anchor="middle" fill="#333" font-weight="bold">Lt. Ho. B</text></g><g><polygon points="370,226 363,240 377,240" fill="#8B4513" stroke="#333" stroke-width="1"/><rect x="368" y="240" width="4" height="8" fill="#888"/><text x="370" y="223" font-size="9" text-anchor="middle" fill="#333" font-weight="bold">Water Tower C</text></g></svg>
